<svg xmlns="http://www.w3.org/2000/svg" xmlns:xlink="http://www.w3.org/1999/xlink" width="500" zoomAndPan="magnify" viewBox="0 0 375 149.999998" height="200" preserveAspectRatio="xMidYMid meet" version="1.0"><defs><clipPath id="198040bba9"><path d="M 80.191406 45.039062 L 125.191406 45.039062 L 125.191406 90 L 80.191406 90 Z M 80.191406 45.039062 " clip-rule="nonzero"/></clipPath></defs><path stroke-linecap="butt" transform="matrix(0.75, 0, 0, 0.75, -62.199413, 53.403572)" fill="none" stroke-linejoin="miter" d="M 145.333601 16.279613 C 146.724226 4.888987 150.15131 -1.689138 156.656518 -1.689138 L 157.385685 -1.689138 C 163.661727 -1.689138 165.052352 2.482737 164.021102 10.665029 L 175.927353 10.665029 L 176.213811 8.310862 C 177.90652 -5.18393 172.130478 -11.902681 157.317977 -11.902681 C 143.213809 -11.902681 135.760684 -3.43393 133.286725 16.352529 L 133.000267 18.691071 C 130.505475 38.550447 137.672142 46.946281 151.755477 46.946281 C 164.250269 46.946281 171.776311 41.612947 173.661728 27.675447 L 173.807561 26.566072 L 161.916935 26.566072 C 161.041935 33.003572 159.65131 36.72753 152.411727 36.72753 L 151.68256 36.72753 C 145.120059 36.72753 143.661726 30.149405 145.031518 18.691071 Z M 145.333601 16.279613 " stroke="#000000" stroke-width="2.099365" stroke-opacity="1" stroke-miterlimit="4"/><path stroke-linecap="butt" transform="matrix(0.75, 0, 0, 0.75, -62.199413, 53.403572)" fill="none" stroke-linejoin="miter" d="M 284.875276 46.946281 C 300.349235 46.946281 305.323194 40.310864 306.927361 27.956697 L 312.047153 -10.959972 L 300.20861 -10.959972 L 295.182568 27.60253 C 294.380485 33.732739 291.880485 36.72753 285.182568 36.72753 C 278.458609 36.72753 277.067984 33.592114 277.870067 27.60253 L 282.916942 -10.959972 L 271.0784 -10.959972 L 265.963817 27.956697 C 264.35965 40.383781 269.401317 46.946281 284.875276 46.946281 Z M 332.416945 25.550447 L 338.906529 25.550447 L 343.948196 45.998364 L 356.359655 45.998364 L 350.297155 24.092113 C 355.62528 22.128571 360.010697 17.743154 361.333614 8.404612 L 361.547155 6.706695 C 363.364864 -7.303722 354.682572 -10.959972 344.536738 -10.959972 L 325.323195 -10.959972 L 317.885695 45.998364 L 329.708612 45.998364 Z M 333.646112 15.336904 L 335.838821 -0.725597 L 343.146113 -0.725597 C 346.359655 -0.725597 350.43778 0.576487 349.567988 7.013987 L 349.422155 8.09732 C 348.620071 14.305654 344.307571 15.336904 341.099238 15.336904 Z M 388.713824 22.128571 C 396.807574 23.66503 398.927366 26.284822 398.427366 30.00878 L 398.265908 31.097322 C 397.765908 34.82128 394.989866 36.72753 390.104449 36.72753 L 389.370074 36.72753 C 383.88049 36.72753 380.531532 33.878572 381.547157 26.566072 L 369.724239 26.566072 L 369.510698 28.263988 C 367.890906 40.456697 375.057573 46.946281 389.44299 46.946281 C 401.406533 46.946281 408.927367 41.612947 410.317992 31.024405 L 410.531533 29.347322 C 411.708617 20.362946 406.16695 14.748363 394.401324 12.555654 C 386.234657 11.024404 384.541948 8.404612 384.984657 5.03482 L 385.13049 3.946279 C 385.573198 0.362945 388.781532 -1.689138 392.724241 -1.689138 L 393.453407 -1.689138 C 400.031533 -1.689138 401.849241 1.894195 400.906533 9.206696 L 412.724242 9.206696 L 412.958617 7.508779 C 414.630492 -5.111014 408.5732 -11.902681 393.380491 -11.902681 C 381.708615 -11.902681 374.469031 -6.501639 373.078406 4.019195 L 372.864864 5.69107 C 371.776323 13.946279 376.448198 19.862946 388.713824 22.128571 Z M 427.833618 -10.959972 L 420.401326 45.998364 L 455.219036 45.998364 L 456.536744 35.784822 L 433.541951 35.784822 L 435.35966 22.055655 L 454.719036 22.055655 L 456.036744 11.826487 L 436.677368 11.826487 L 438.354452 -0.725597 L 461.370078 -0.725597 L 462.672161 -10.959972 Z M 500.573205 45.998364 L 501.890914 35.784822 L 480.854454 35.784822 L 486.989871 -10.959972 L 475.151329 -10.959972 L 467.719037 45.998364 Z M 544.088833 45.998364 L 545.411749 35.784822 L 524.37529 35.784822 L 530.505499 -10.959972 L 518.666956 -10.959972 L 511.234664 45.998364 Z M 544.088833 45.998364 " stroke="#000000" stroke-width="2.099365" stroke-opacity="1" stroke-miterlimit="4"/><g clip-path="url(#198040bba9)"><path fill="#000000" d="M 102.585938 44.914062 C 96.613281 44.914062 90.882812 47.285156 86.660156 51.511719 C 82.433594 55.734375 80.0625 61.464844 80.0625 67.4375 C 80.0625 67.507812 80.0625 67.574219 80.0625 67.640625 C 80.0625 67.671875 80.0625 67.699219 80.0625 67.730469 C 80.0625 67.796875 80.0625 67.863281 80.0625 67.929688 C 80.0625 68.140625 80.0625 68.351562 80.09375 68.558594 C 80.117188 69.136719 80.160156 69.714844 80.230469 70.289062 C 80.230469 70.292969 80.230469 70.289062 80.257812 70.292969 C 80.714844 73.867188 82.023438 77.273438 84.0625 80.230469 C 84.027344 80.253906 83.992188 80.304688 83.953125 80.359375 C 85.542969 82.710938 87.511719 84.691406 89.851562 86.300781 C 92.195312 87.90625 94.746094 89.03125 97.515625 89.671875 C 97.589844 89.578125 97.652344 89.492188 97.691406 89.421875 C 99.289062 89.78125 100.9375 89.964844 102.601562 89.964844 C 104.351562 89.964844 106.082031 89.757812 107.757812 89.363281 C 107.761719 89.382812 107.757812 89.402344 107.757812 89.414062 C 107.789062 89.46875 107.816406 89.539062 107.878906 89.621094 C 110.640625 88.953125 113.1875 87.804688 115.515625 86.171875 C 117.839844 84.539062 119.789062 82.539062 121.359375 80.171875 C 121.324219 80.125 121.292969 80.082031 121.261719 80.058594 C 121.257812 80.058594 121.253906 80.058594 121.253906 80.054688 C 123.242188 77.109375 124.515625 73.726562 124.949219 70.183594 C 124.957031 70.1875 124.960938 70.191406 124.96875 70.191406 C 125.035156 69.585938 125.078125 68.976562 125.097656 68.371094 C 125.101562 68.226562 125.109375 68.082031 125.113281 67.9375 C 125.113281 67.867188 125.117188 67.796875 125.117188 67.730469 C 125.117188 67.699219 125.117188 67.667969 125.117188 67.636719 C 125.117188 67.570312 125.117188 67.503906 125.117188 67.4375 C 125.117188 61.464844 122.746094 55.734375 118.519531 51.507812 C 114.296875 47.285156 108.566406 44.910156 102.59375 44.910156 Z M 102.585938 45.203125 C 104.132812 45.203125 105.664062 45.363281 107.15625 45.675781 C 105.648438 45.363281 104.125 45.207031 102.585938 45.203125 C 100.882812 45.207031 99.199219 45.398438 97.539062 45.785156 C 99.179688 45.402344 100.871094 45.203125 102.585938 45.203125 Z M 107.34375 45.71875 C 107.753906 45.808594 108.164062 45.910156 108.570312 46.023438 C 108.164062 45.910156 107.753906 45.808594 107.34375 45.71875 Z M 97.410156 45.8125 C 96.9375 45.925781 96.46875 46.054688 96.007812 46.199219 C 96.46875 46.054688 96.9375 45.925781 97.410156 45.8125 Z M 95.632812 46.316406 C 95.273438 46.433594 94.914062 46.5625 94.558594 46.699219 C 94.914062 46.5625 95.273438 46.433594 95.632812 46.316406 Z M 110.246094 46.5625 C 113.246094 47.664062 116.003906 49.410156 118.308594 51.714844 C 119.199219 52.601562 120 53.558594 120.71875 54.570312 C 120.519531 54.851562 120.261719 55.34375 119.972656 55.945312 C 117.417969 52.082031 113.605469 49.125 109.125 47.644531 C 109.617188 47.214844 110.011719 46.835938 110.246094 46.5625 Z M 94.222656 46.835938 C 94.433594 47.085938 94.847656 47.453125 95.375 47.875 C 91.1875 49.421875 87.632812 52.273438 85.203125 55.9375 C 84.90625 55.34375 84.640625 54.859375 84.441406 54.585938 C 85.160156 53.566406 85.96875 52.605469 86.863281 51.714844 C 88.984375 49.59375 91.492188 47.945312 94.222656 46.835938 Z M 108.9375 47.804688 C 113.46875 49.269531 117.3125 52.261719 119.867188 56.171875 C 118.734375 58.605469 117.234375 62.652344 117.21875 63.621094 C 117.210938 63.621094 117.203125 63.625 117.195312 63.625 L 110.800781 65.246094 C 110.015625 64.085938 103.566406 59.371094 102.691406 59.367188 C 102.6875 59.367188 102.691406 59.371094 102.691406 59.371094 C 102.691406 59.367188 102.691406 59.367188 102.691406 59.367188 L 102.5625 52.375 C 102.5625 52.363281 102.5625 52.355469 102.558594 52.347656 C 103.484375 52.066406 106.914062 49.558594 108.945312 47.804688 Z M 95.574219 48.03125 C 97.675781 49.691406 101.332031 52.113281 102.28125 52.355469 C 102.28125 52.363281 102.28125 52.371094 102.28125 52.375 L 102.410156 59.371094 C 102.414062 59.394531 102.421875 59.414062 102.4375 59.433594 C 100.929688 60.003906 95.175781 64.160156 94.515625 65.1875 L 88.117188 63.59375 C 88.109375 63.59375 88.097656 63.589844 88.085938 63.589844 C 88.054688 62.617188 86.488281 58.574219 85.316406 56.160156 C 87.746094 52.445312 91.339844 49.5625 95.582031 48.03125 Z M 88.015625 63.855469 C 88.027344 63.859375 88.035156 63.863281 88.046875 63.863281 L 94.4375 65.453125 C 94.40625 66.804688 96.59375 73.671875 97.421875 74.824219 L 94.085938 79.757812 C 94.085938 79.765625 94.085938 79.769531 94.085938 79.777344 C 93.152344 79.472656 88.777344 79.558594 86.113281 79.832031 C 83.859375 76.835938 82.402344 73.207031 82.058594 69.257812 C 84.207031 67.667969 87.554688 64.714844 88.039062 63.855469 Z M 117.285156 63.882812 C 117.769531 64.71875 120.980469 67.476562 123.152344 69.0625 C 122.84375 73.027344 121.414062 76.675781 119.183594 79.695312 C 116.511719 79.46875 112.148438 79.457031 111.226562 79.777344 C 111.230469 79.769531 111.230469 79.761719 111.226562 79.753906 L 107.855469 74.832031 C 108.730469 73.546875 110.960938 66.761719 110.902344 65.507812 L 117.273438 63.890625 C 117.28125 63.890625 117.289062 63.886719 117.296875 63.882812 Z M 123.355469 69.210938 C 123.886719 69.589844 124.34375 69.894531 124.667969 70.0625 C 124.246094 73.613281 122.972656 77.003906 120.972656 79.945312 C 120.648438 79.855469 120.097656 79.78125 119.429688 79.714844 C 121.617188 76.71875 123.023438 73.117188 123.355469 69.210938 Z M 81.835938 69.410156 C 82.199219 73.300781 83.636719 76.886719 85.847656 79.859375 C 85.179688 79.933594 84.632812 80.019531 84.316406 80.117188 C 82.28125 77.179688 80.976562 73.792969 80.527344 70.238281 C 80.808594 70.121094 81.277344 69.816406 81.835938 69.410156 Z M 97.617188 75.011719 C 98.742188 75.503906 106.757812 75.535156 107.652344 75.039062 L 110.992188 79.910156 C 111 79.917969 111.011719 79.925781 111.023438 79.929688 C 110.402344 80.679688 108.894531 84.730469 108.164062 87.308594 C 106.394531 87.804688 104.527344 88.070312 102.601562 88.070312 C 100.777344 88.070312 99.007812 87.832031 97.324219 87.386719 C 96.5625 84.824219 94.945312 80.675781 94.304688 79.929688 C 94.3125 79.925781 94.324219 79.921875 94.332031 79.914062 Z M 108.082031 87.550781 C 107.90625 88.1875 107.785156 88.726562 107.75 89.066406 C 106.070312 89.46875 104.339844 89.675781 102.585938 89.675781 C 100.933594 89.675781 99.300781 89.492188 97.714844 89.136719 C 97.683594 88.824219 97.566406 88.285156 97.378906 87.628906 C 99.042969 88.054688 100.789062 88.285156 102.585938 88.285156 C 104.488281 88.285156 106.332031 88.027344 108.082031 87.550781 Z M 108.082031 87.550781 " fill-opacity="1" fill-rule="nonzero"/></g></svg>